<?xml version="1.0" encoding="UTF-8"?>
<!DOCTYPE svg PUBLIC "-//W3C//DTD SVG 1.1//EN" "http://www.w3.org/Graphics/SVG/1.1/DTD/svg11.dtd">
<!-- Creator: CorelDRAW -->
<svg xmlns="http://www.w3.org/2000/svg" xml:space="preserve" width="126.455mm" height="76.0324mm" version="1.1" style="shape-rendering:geometricPrecision; text-rendering:geometricPrecision; image-rendering:optimizeQuality; fill-rule:evenodd; clip-rule:evenodd"
viewBox="0 0 12646 7603"
 xmlns:xlink="http://www.w3.org/1999/xlink">
 <defs>
  <style type="text/css">
   <![CDATA[
    .fil2 {fill:black}
    .fil1 {fill:#B14B18}
    .fil0 {fill:#CC7E4B}
    .fil3 {fill:#CCCCCC}
    .fil4 {fill:#D99966}
    .fil6 {fill:#E4B17E}
    .fil5 {fill:white}
   ]]>
  </style>
 </defs>
 <g id="__x0023_Layer_x0020_1">
  <metadata id="CorelCorpID_0Corel-Layer"/>
  <g id="anim0394.ai">
   <g>
    <polygon class="fil0" points="10177,5625 9984,6384 9682,6476 9569,6606 9535,6920 9749,6861 9896,6958 10202,6937 10403,6736 10386,6526 10529,5843 "/>
    <polygon class="fil1" points="9867,6945 9929,6761 10122,6627 10068,6782 10085,6887 10202,6937 10043,7000 "/>
    <polygon class="fil1" points="10256,5772 10202,6149 10143,6337 10122,6409 10194,6425 10173,6522 10009,6526 9871,6631 9749,6790 9691,6677 9858,6522 9640,6576 9770,6442 10022,6316 10106,5679 "/>
    <polygon class="fil2" points="10026,5688 10009,6157 9946,6325 9732,6417 9586,6560 9569,6765 9665,6560 9871,6442 10059,6379 10135,6199 10173,5705 "/>
    <polygon class="fil2" points="9858,6555 9682,6652 9619,6836 9523,6958 9737,6916 9896,6958 9753,6832 9762,6685 "/>
    <polygon class="fil2" points="10026,6740 9946,6815 9825,7000 10005,7012 10194,6979 10303,6840 10122,6933 10009,6895 "/>
    <polygon class="fil2" points="10470,5851 10340,6526 10361,6719 10307,6836 10399,6723 10420,6451 10571,5843 "/>
    <polygon class="fil3" points="214,2339 327,2343 465,2381 557,2645 415,2703 231,2603 "/>
    <polygon class="fil0" points="12432,537 12306,717 12222,951 12004,1794 11589,2544 11090,3110 10441,3483 10592,3982 10868,3651 11476,3332 11878,2888 12180,2364 12360,1865 12528,604 "/>
    <polygon class="fil0" points="1936,2125 1936,2502 2092,3470 2062,4606 2423,5503 3060,6086 3626,6249 3709,6765 3391,6778 3211,6903 3156,7067 3416,7151 3651,7306 3667,7524 4137,7595 4564,7415 4812,7012 4937,6568 5009,6153 8089,5671 9364,5394 10261,5780 10910,5780 11158,6652 10940,6706 10785,7054 11007,7180 11313,7234 11602,7084 11698,6903 11560,6543 11631,5298 11547,5185 11132,5088 10940,4246 10604,3693 10206,3194 8991,2888 5684,3056 4137,2624 3751,2209 3378,1450 "/>
    <polygon class="fil0" points="1094,583 1123,323 1366,143 1534,50 1874,0 2192,21 2850,180 3181,570 3588,930 3437,1739 2842,2326 1832,2180 1375,2448 1186,2687 947,2796 490,2754 398,2708 503,2523 448,2406 268,2276 499,1798 826,1450 738,1039 796,910 1014,771 "/>
    <polygon class="fil1" points="11401,5730 11334,5868 11334,6040 11321,6170 11476,6467 11438,5717 "/>
    <polygon class="fil1" points="11036,5348 11187,5285 11296,5298 11438,5369 11434,5533 11430,5751 11350,5596 11262,5487 "/>
    <polygon class="fil1" points="11531,5218 11589,5365 11531,5487 11489,5633 11505,5981 11510,6643 11627,6811 11652,5679 11702,5327 "/>
    <polygon class="fil1" points="11191,6928 11124,7037 11107,7142 11254,7243 11350,7226 11275,7125 11254,7016 11321,6870 "/>
    <polygon class="fil1" points="11241,6396 11313,6614 11250,6761 11124,6815 11019,6920 10969,7029 11036,7209 10889,7184 10776,7071 10776,6861 10990,6669 11149,6648 11132,6417 "/>
    <polygon class="fil1" points="3626,5528 3860,5658 4015,5717 4170,5742 4267,5889 4284,6115 4309,6325 4359,6497 4430,6656 4384,7021 4397,7188 4309,7151 4212,7213 4087,7176 3873,7209 3756,7301 3701,7410 3714,7498 3563,7436 3638,7222 3839,7130 3973,7100 3961,7037 3864,7037 3751,7130 3718,7096 3768,6958 3994,6899 4204,6907 4129,6354 3890,5809 "/>
    <polygon class="fil1" points="3227,7029 3362,6907 3491,6836 3605,6836 3609,6895 3500,7008 3441,7201 3504,7251 3550,7079 3630,6958 3735,6887 3978,6878 3973,6782 3852,6694 3814,6555 3818,6363 3655,6308 3684,6715 3462,6748 3273,6832 "/>
    <polygon class="fil1" points="2536,2364 2787,2402 2980,2351 3232,2192 3596,1878 3437,1626 3341,1819 2947,2209 2699,2343 "/>
    <polygon class="fil1" points="5202,4749 5202,5009 4992,5386 4870,5579 4757,6119 5063,6132 5105,5897 5285,5579 5243,5885 5407,5562 5394,5759 5533,5562 5575,5700 5700,5495 5755,5633 5851,5440 5893,5604 6073,5369 6073,5549 6224,5344 6224,5508 6333,5302 6333,5482 6501,5218 6488,5424 6652,5147 6652,4845 6568,4996 6513,4845 6375,5026 6333,4845 6266,5051 6212,4816 6086,5009 5990,4816 5893,5051 5839,4774 5738,4984 5671,4749 5587,4929 5520,4720 5466,4929 5365,4720 5327,4900 "/>
    <polygon class="fil1" points="4912,6036 5093,6061 5382,5897 5352,6036 5545,5855 5520,5981 5725,5772 5700,5885 5876,5730 5906,5885 6086,5675 6086,5855 6266,5675 6308,5784 6459,5646 6513,5759 6958,5730 7398,5646 8203,5524 9154,5231 9418,5411 8131,5663 6430,5922 4979,6199 "/>
    <polygon class="fil1" points="9997,5549 10315,5633 10604,5633 10881,5604 11103,5730 11132,5910 11283,6518 11145,6685 11007,5952 10231,5784 "/>
    <polygon class="fil1" points="1283,2511 1379,2301 1714,2092 1999,2016 2180,1957 2247,1865 2238,2045 1731,2234 "/>
    <polygon class="fil1" points="1895,2167 1911,2494 2125,3508 2125,4179 2087,4636 2506,5675 2875,6027 4032,6388 3944,6027 3869,6103 3743,5902 3705,6044 3609,5843 3584,5985 3433,5759 3382,5956 3286,5759 3219,5902 3127,5700 3085,5818 3001,5604 2951,5730 2745,5558 2590,5252 2599,4979 2724,4749 2574,4539 2397,4455 2276,4275 2276,3751 2255,3294 2125,2833 2029,2519 1991,2138 "/>
    <polygon class="fil1" points="10537,3600 11036,3294 11472,2968 11740,2628 11987,2192 12147,1735 12222,1400 12285,713 12210,960 12038,1576 11891,2117 11367,2825 10747,3261 10357,3475 "/>
    <polygon class="fil0" points="1379,1169 1345,1253 1362,1350 1496,1362 1568,1287 1572,1216 1488,1165 "/>
    <polygon class="fil1" points="1765,13 1534,126 1387,210 1291,335 1312,432 1107,604 1127,386 1245,231 1442,67 "/>
    <polygon class="fil1" points="1920,356 1651,465 1509,574 1362,738 1236,930 1195,1102 1182,1236 1312,1136 1387,1031 1475,989 1568,977 1651,1048 1685,1178 1710,964 1811,1119 1786,914 1899,1077 1853,859 1949,985 1890,767 2045,935 1957,671 2058,759 1987,595 1991,495 2221,365 "/>
    <polygon class="fil1" points="989,817 889,868 876,960 930,1065 889,1073 759,977 817,876 951,771 "/>
    <polygon class="fil1" points="863,1308 893,1446 855,1572 683,1794 524,1941 436,2108 415,2200 549,2138 696,2096 541,2242 465,2360 415,2385 159,2263 247,2087 759,1559 "/>
    <polygon class="fil1" points="537,2439 578,2569 482,2683 465,2754 675,2817 801,2758 872,2687 696,2716 813,2636 671,2657 771,2557 671,2557 729,2465 658,2469 666,2335 "/>
    <polygon class="fil1" points="2041,377 2301,197 2410,151 2154,126 1874,130 2209,25 2490,38 2766,138 2997,335 3299,637 3483,826 3278,721 3030,666 2959,742 2976,914 2930,1119 2871,838 2825,1044 2771,750 2687,901 2687,641 2603,754 2607,537 2490,436 2293,411 2125,478 "/>
    <polygon class="fil1" points="2418,1262 2372,1505 2368,1718 2368,1920 2402,2054 2498,2200 2678,2234 2850,2146 2926,1999 2976,1832 3001,1970 3131,1890 3219,1735 3299,1513 3336,1249 3194,1614 3194,1446 3106,1714 3085,1555 3026,1790 2984,1630 2879,1890 2854,1735 2791,2066 2750,1895 2695,2138 2645,1949 2615,2100 2557,1911 2527,2045 2486,1840 2444,1907 2439,1597 "/>
    <polygon class="fil1" points="1408,1467 1530,1454 1647,1400 1576,1488 1492,1513 "/>
    <polygon class="fil1" points="1019,2305 1144,2226 1253,2205 1358,2230 1283,2154 1165,2175 1069,2205 "/>
    <polygon class="fil1" points="3517,1438 3751,2125 3844,2263 4154,2494 4258,2691 4183,3198 4103,2980 3982,2808 3756,2557 3592,2330 3546,2054 3433,1735 "/>
    <polygon class="fil1" points="4233,2523 4481,2574 5067,2775 5537,2921 6970,2968 8400,2871 9183,2892 9921,3056 10449,3458 10726,3848 10994,4296 11070,5000 11095,5189 10969,5264 10789,5088 10592,4761 10416,4468 10185,4041 9900,3776 9636,3605 9720,3542 9879,3487 10143,3458 9938,3286 9712,3181 9435,3072 9108,3051 8823,3068 8630,3139 8467,3244 8400,3332 8307,3483 8102,3634 7645,3730 7373,3751 6878,3701 6321,3592 5780,3487 5545,3454 5344,3533 5189,3835 5017,3990 4753,4082 4577,4066 4703,3814 4778,3563 4778,3269 4678,2968 4594,2842 4200,2653 "/>
    <polygon class="fil1" points="3278,4196 3102,4443 3001,4761 3211,4485 3349,4334 3416,4652 3584,4942 3806,5080 3596,4732 3529,4414 3487,4015 "/>
    <polygon class="fil1" points="2796,5109 2988,5399 3349,5537 3638,5508 3253,5386 2959,5248 "/>
    <polygon class="fil1" points="9003,4443 9100,4732 9292,4984 9720,5248 10164,5386 9762,5109 9515,4900 9334,4652 "/>
    <polygon class="fil4" points="2180,2255 2117,2372 2117,2536 2247,2951 2343,3253 2381,3550 2381,3932 2402,4150 2544,4372 2729,4502 2683,4112 2796,3873 3047,3672 3269,3399 3462,3068 3525,2741 3429,2142 3202,2372 2934,2473 2632,2519 2624,2984 2431,2741 2360,2460 2368,2377 "/>
    <polygon class="fil4" points="10621,3621 11103,3332 11484,3039 11719,2779 11891,2481 12029,2205 12168,1857 12264,1442 12293,1094 12327,897 12390,796 12356,1195 12314,1559 12264,1815 12189,2066 12084,2347 11967,2582 11828,2791 11635,3014 11443,3194 11174,3399 10931,3533 10730,3684 "/>
    <polygon class="fil4" points="1425,1077 1480,1031 1547,1031 1593,1060 1643,1144 1626,1195 1530,1102 "/>
    <polygon class="fil1" points="1731,1241 1786,1362 1832,1304 1899,1371 1899,1283 1983,1345 1995,1245 2062,1345 2100,1207 2171,1371 2184,1220 2247,1362 2255,1203 2322,1324 2284,1048 2200,926 2200,1077 2129,972 2146,1123 2066,1048 2045,1174 1991,1077 1974,1174 1924,1123 1924,1220 1869,1115 1853,1236 1777,1140 1794,1266 "/>
    <polygon class="fil1" points="1358,1614 1400,1727 1517,1811 1626,1861 1626,1790 1693,1836 1689,1739 1752,1773 1727,1681 1798,1714 1718,1551 1643,1542 1584,1664 1501,1681 "/>
    <polygon class="fil4" points="2050,210 1878,226 1622,319 1446,453 1291,641 1132,889 1006,876 947,947 951,1069 930,1190 943,1324 926,1463 1027,1358 1102,1257 1169,1019 1236,847 1379,662 1547,499 1718,381 1907,310 2024,298 2167,214 "/>
    <polygon class="fil4" points="1169,1341 1102,1471 1077,1647 998,1760 889,1882 805,2004 947,1957 1174,1773 1148,1911 981,2100 1065,2125 1216,2041 1375,2092 1433,2188 1609,2083 1735,2016 1915,1966 2096,1936 2213,1840 2024,1878 1786,1924 1576,1920 1400,1832 1316,1698 1295,1521 1253,1400 1278,1216 "/>
    <polygon class="fil4" points="1827,1450 1874,1576 1874,1681 1798,1815 1983,1773 2146,1689 2242,1593 2276,1345 2200,1484 2188,1383 2129,1509 2096,1358 2045,1509 2012,1396 1962,1492 1915,1404 1895,1509 "/>
    <polygon class="fil4" points="1953,1102 1911,993 1983,1019 1953,872 2050,998 2037,813 2100,893 2066,683 2159,763 2238,914 2163,851 2180,989 2096,939 2104,1052 2033,1019 2033,1098 1957,1052 "/>
    <polygon class="fil4" points="1299,2284 1245,2234 1169,2247 1065,2293 960,2439 834,2586 918,2574 859,2645 922,2620 1002,2536 1107,2385 1195,2314 1295,2339 "/>
    <polygon class="fil4" points="2242,478 2322,587 2368,746 2393,972 2335,1396 2452,1019 2469,1597 2557,1060 2523,1794 2628,1157 2603,1865 2703,1278 2699,1957 2771,1337 2800,1895 2850,1362 2896,1773 2934,1345 2997,1689 3018,1266 3097,1618 3173,1207 3206,1488 3265,1144 3257,889 3185,767 3198,1157 3144,863 3097,1308 3051,926 2993,1039 2988,1337 2905,1144 2905,1358 2846,1123 2821,1308 2766,1006 2737,1253 2708,910 2666,1224 2620,792 2603,1073 2557,687 2540,956 2452,578 2460,834 2372,520 "/>
    <polygon class="fil5" points="1496,1195 1542,1245 1517,1278 1496,1253 "/>
    <polygon class="fil4" points="2783,5248 2984,5478 3206,5583 3483,5600 3609,5583 3810,5906 3651,5751 3676,5922 3521,5713 3521,5830 3433,5696 3362,5818 3248,5663 3232,5801 3177,5642 3118,5742 3072,5608 2942,5537 2905,5679 2829,5461 "/>
    <polygon class="fil4" points="4099,3630 3852,3869 3722,4053 3667,4271 3697,4611 3772,4812 3881,4963 4166,5084 4254,4837 4045,4837 3923,4657 3898,4384 3940,4053 "/>
    <polygon class="fil4" points="4326,2863 4334,3148 4300,3403 4187,3797 4422,3642 4510,3445 4535,3169 4468,2951 "/>
    <polygon class="fil4" points="3257,4544 3047,4778 2984,4963 3014,5139 3248,5285 3579,5424 3869,5503 3793,5365 3529,5260 3282,5109 3160,4917 "/>
    <polygon class="fil4" points="4179,5248 4204,5436 4300,5583 4430,5751 4606,5809 4720,5730 4854,5445 4678,5357 4502,5390 "/>
    <polygon class="fil1" points="4879,5579 4766,5780 4778,6010 4636,6103 4585,6354 4585,6572 4682,6748 4820,6518 4803,6748 4678,6995 4548,7142 4506,7436 4632,7389 4963,6572 4975,6073 4984,5566 "/>
    <polygon class="fil4" points="4355,5860 4326,6057 4326,6258 4384,6472 4489,6673 4543,6576 4523,6337 4527,6119 4615,6019 4648,5876 4523,5893 "/>
    <polygon class="fil4" points="3781,7427 3927,7352 4082,7301 3990,7239 3860,7255 3772,7339 "/>
    <polygon class="fil4" points="3961,7482 4015,7415 4179,7373 4217,7301 4347,7251 4468,7360 4372,7440 4149,7494 "/>
    <polygon class="fil4" points="3936,6488 3940,6610 3990,6677 4061,6811 4120,6744 4095,6526 "/>
    <polygon class="fil2" points="1752,163 1501,260 1153,537 939,792 784,880 763,1002 863,889 1039,813 1216,578 1421,381 "/>
    <polygon class="fil2" points="750,1048 750,1174 792,1320 792,1480 587,1714 339,1941 163,2138 42,2318 0,2427 80,2565 331,2703 419,2699 319,2607 419,2557 482,2641 507,2515 298,2515 256,2431 339,2351 218,2284 251,2146 402,1983 654,1714 855,1475 893,1241 859,1119 "/>
    <polygon class="fil2" points="448,2737 591,2812 792,2854 1002,2817 1228,2670 1471,2431 1765,2276 2276,2100 2263,2033 1802,2129 1547,2268 1371,2381 1195,2607 977,2745 784,2779 516,2750 "/>
    <polygon class="fil2" points="2289,1589 2213,2050 2280,2268 2460,2368 2720,2372 2997,2247 3311,1953 3475,1698 3638,914 3504,985 3412,1463 3395,1706 3185,1924 2917,2192 2683,2309 2439,2259 2297,2004 "/>
    <polygon class="fil2" points="2242,352 2427,226 2683,243 3014,352 3206,516 3454,792 3081,507 2842,386 2804,553 2641,402 2427,348 "/>
    <polygon class="fil2" points="683,2771 855,2745 960,2649 1086,2465 1203,2356 1295,2377 1262,2465 1136,2544 872,2808 "/>
    <polygon class="fil2" points="3483,1429 3776,2293 4116,2607 4217,2947 4263,2532 4099,2339 3844,2200 3508,1211 "/>
    <polygon class="fil2" points="4250,2532 4829,2607 5239,2821 5684,2892 6258,2926 7209,2926 8328,2829 8953,2796 9577,2875 10051,3072 10487,3311 10940,3047 11443,2641 11828,2121 12105,1362 12239,838 12172,1421 12063,1807 11908,2167 11518,2775 11103,3160 10504,3533 9984,3185 9485,2984 8886,2909 8194,2926 7473,3018 7012,3051 6283,3043 5650,3018 5264,2934 4837,2712 "/>
    <polygon class="fil2" points="1895,2112 1987,2607 2117,3261 2184,3814 2129,4682 2238,4971 2444,5394 2649,5692 2938,5897 3378,6069 3810,6208 3961,6237 3894,5918 3630,5533 3978,5805 4129,6019 4183,6350 4238,6593 4309,6949 4120,7004 4154,6740 4129,6505 3743,6404 3223,6245 2771,6019 2481,5751 2259,5336 2108,4963 2033,4636 2062,4204 2071,3785 2041,3299 1970,2791 1886,2473 "/>
    <polygon class="fil2" points="4942,5533 4820,5751 4845,6002 4678,6178 4652,6472 4724,6593 4845,6245 4912,6648 4724,7021 4602,7142 4548,7406 4129,7545 3894,7507 3902,7398 3672,7553 3864,7566 4053,7603 4305,7603 4539,7528 4652,7423 4753,7188 4975,6723 5072,6245 4921,6078 "/>
    <polygon class="fil2" points="3961,7104 3747,7100 3605,7209 3538,7360 3424,7482 3575,7461 3718,7498 3642,7398 3642,7301 3735,7201 "/>
    <polygon class="fil2" points="1081,641 1094,373 1216,235 1433,75 1685,25 1421,130 1236,293 1182,415 1207,566 "/>
    <polygon class="fil2" points="1857,138 2050,96 2289,71 2532,96 2766,184 2884,340 3051,407 2997,272 2875,168 2741,92 2427,13 2146,21 "/>
    <polygon class="fil2" points="3609,6887 3500,6958 3408,7117 3315,7247 3429,7218 3504,7280 3600,7306 3621,7251 3512,7197 3496,7071 "/>
    <polygon class="fil2" points="3701,6736 3445,6723 3269,6803 3160,6983 3068,7125 3181,7109 3265,7159 3420,7180 3433,7134 3341,7121 3248,7054 3265,6928 3399,6803 "/>
    <polygon class="fil2" points="3642,6275 3613,6396 3613,6560 3642,6744 3785,6782 3747,6669 3739,6513 3739,6358 "/>
    <polygon class="fil2" points="4191,6891 4007,6870 3823,6903 3705,6991 3655,7234 3705,7188 3768,7021 3869,6966 4003,6949 4133,7000 "/>
    <polygon class="fil2" points="4929,6149 5172,6124 5541,6019 5914,5889 6568,5872 7431,5755 8278,5608 8852,5445 9221,5311 8877,5130 8647,5055 8869,5030 9389,5172 9862,5445 10240,5667 10588,5763 10923,5797 11070,5918 11246,6585 11170,6719 10931,6790 10810,6907 10810,7104 10659,7155 10734,7037 10759,6840 10923,6702 11103,6635 11053,6371 10931,5969 10365,5855 9896,5721 9414,5466 8747,5625 7989,5763 6815,5943 6111,6036 5000,6266 "/>
    <polygon class="fil2" points="10617,3722 10881,4242 11015,4736 11086,5189 11283,5189 11480,5197 11631,5344 11581,5667 11539,5960 11556,6685 11631,6924 11547,7104 11384,7197 11254,7218 11195,7130 11120,7054 11023,7218 11153,7218 11283,7301 11614,7172 11719,6891 11656,6488 11711,5319 11623,5155 11472,5114 11162,5055 11095,4481 10973,4129 10785,3797 "/>
    <polygon class="fil2" points="10948,6866 10835,7004 10818,7163 10768,7251 10906,7205 11023,7209 10914,7130 10898,6995 "/>
    <polygon class="fil2" points="11128,5386 11283,5319 11401,5386 11417,5499 11417,5684 11334,5466 "/>
    <polygon class="fil2" points="11434,5805 11367,5927 11359,6149 11472,6446 "/>
    <polygon class="fil2" points="12419,474 12306,625 12264,788 12356,666 12478,608 12411,1010 12360,1446 12277,1924 12096,2481 11862,2850 11577,3144 11237,3408 10898,3626 10764,3776 11049,3617 11464,3336 11824,2993 12063,2683 12222,2301 12377,1878 12465,1316 12528,813 12646,465 12486,541 12604,386 "/>
    <polygon class="fil2" points="1345,1312 1442,1337 1538,1337 1664,1287 1538,1387 1408,1387 1333,1429 1299,1379 "/>
    <polygon class="fil2" points="1304,1287 1345,1278 1396,1358 1375,1236 1429,1182 1488,1182 1660,1291 1605,1207 1488,1132 1387,1144 1337,1182 "/>
    <polygon class="fil2" points="1568,1220 1563,1278 1526,1320 1433,1383 1509,1383 1576,1320 1601,1236 "/>
    <polygon class="fil2" points="1949,511 2037,419 2167,419 2297,620 2347,914 2309,1366 2259,926 2125,620 "/>
    <polygon class="fil2" points="1454,1157 1421,1241 1425,1287 1475,1295 1521,1195 "/>
    <polygon class="fil4" points="4095,4875 4267,4564 4468,4326 4657,4217 4829,4187 4967,4271 5063,4418 5139,4791 5097,5097 4896,5269 4820,5034 4766,4577 4682,4820 4648,4564 4598,4724 4497,4640 4460,4803 4401,4715 4309,4883 4263,5130 4116,5059 "/>
    <polygon class="fil4" points="4862,4238 5168,4183 5365,4032 5491,3823 5679,3672 6023,3676 6488,3810 6907,3877 7356,3919 7758,3927 8001,3873 8228,3789 8416,3592 8496,3823 8601,4204 8768,4523 8907,4770 9133,5000 8836,4896 8643,4715 8504,4493 8282,4070 8257,4313 8144,4133 8068,4363 7968,4154 7897,4376 7788,4196 7771,4363 7662,4196 7612,4409 7524,4229 7448,4472 7385,4246 7322,4472 7239,4208 7197,4409 7138,4279 6887,4288 6681,4279 6212,4175 5918,4271 5621,4426 5298,4581 5021,4736 "/>
    <polygon class="fil4" points="6585,5533 6765,5428 7075,5302 7436,5206 7930,5130 8362,5101 8714,5143 8873,5235 8492,5344 8048,5457 7377,5579 6874,5650 6685,5621 "/>
    <polygon class="fil4" points="4766,6677 4673,6807 4569,6878 4493,6928 4506,7046 4661,6928 4745,6807 "/>
    <polygon class="fil4" points="9217,3215 8919,3240 8768,3353 8693,3538 8714,3768 8810,3973 8961,4187 9322,4451 9603,4703 9950,5097 10307,5365 10282,5440 10026,5428 10219,5533 10432,5558 10864,5503 10684,5428 10386,5227 10076,4883 9699,4426 9443,4204 9598,4225 9343,4087 9506,4057 9250,3940 9397,3932 9188,3823 9334,3776 9079,3651 9209,3609 9016,3496 9225,3462 9108,3374 9284,3374 9204,3311 9443,3299 "/>
    <polygon class="fil4" points="11028,5516 11153,5503 11296,5600 11325,5746 11254,5906 11195,5705 11120,5629 "/>
    <polygon class="fil4" points="10328,5843 10282,6086 10248,6333 10227,6534 10152,6690 10122,6819 10164,6853 10252,6828 10323,6652 10307,6480 10453,5851 "/>
    <polygon class="fil4" points="9846,6853 9846,6748 9909,6627 10034,6597 10068,6652 9942,6727 "/>
    <polygon class="fil4" points="11317,7117 11325,6937 11422,6845 11317,6723 11338,6451 11254,6203 11388,6388 11451,6543 11464,6702 11560,6828 11568,6966 11472,7075 "/>
    <polygon class="fil4" points="11199,6861 11082,7042 11036,7125 11036,7000 11090,6887 "/>
    <polygon class="fil4" points="10185,4611 10370,4812 10483,5059 10621,5235 10856,5319 10613,5055 10516,4803 10407,4694 "/>
    <polygon class="fil6" points="1019,968 989,1023 968,1136 989,1236 1073,1199 1123,989 "/>
    <polygon class="fil6" points="2896,2988 2724,3144 2678,3320 2662,3542 2771,3408 2657,3705 2783,3546 2691,3793 2641,3936 2863,3739 3051,3521 3152,3320 2917,3542 3009,3370 2854,3475 2972,3215 2854,3299 2926,3139 2791,3223 "/>
    <polygon class="fil6" points="2536,3378 2481,3613 2444,3823 2473,4015 2578,4221 2678,4334 2586,4028 2557,3760 "/>
    <polygon class="fil6" points="2234,2347 2188,2486 2234,2678 2326,2867 2452,3039 2515,3206 2506,2997 2393,2791 2326,2615 2318,2381 "/>
    <polygon class="fil6" points="1245,1660 1291,1823 1433,1915 1618,1962 1526,2050 1463,2092 1379,2020 1236,1987 1236,1895 "/>
    <polygon class="fil6" points="3362,1425 3286,1672 3156,1865 3362,1714 "/>
    <polygon class="fil6" points="4279,5336 4300,5457 4430,5633 4606,5684 4753,5528 4514,5499 "/>
    <polygon class="fil6" points="4640,4334 4782,4388 4896,4581 4958,4933 5021,4699 4946,4430 4791,4267 "/>
    <polygon class="fil6" points="6786,5499 7050,5365 7373,5290 7679,5260 7968,5273 7373,5415 7083,5528 6878,5558 "/>
    <polygon class="fil6" points="8827,3378 8743,3546 8781,3688 8856,3864 8970,4028 9154,4204 9464,4426 9167,4091 9020,3885 8919,3684 8873,3504 8928,3328 "/>
    <polygon class="fil6" points="5105,4271 5382,4187 5617,4024 5738,3814 5977,3831 6291,3927 6555,4091 5977,3994 5809,4091 5617,4300 5269,4439 5009,4367 4912,4271 "/>
   </g>
  </g>
 </g>
</svg>
